<svg xmlns="http://www.w3.org/2000/svg" fill="none" viewBox="0 0 96 96" id="Visa--Streamline-Svg-Logos" height="24" width="24">
  <desc>
    Visa Streamline Icon: https://streamlinehq.com
  </desc>
  <path fill="url(#a)" d="M49.6146 42.5262c-.0537 4.2284 3.7682 6.5881 6.6473 7.991 2.9581 1.4395 3.9517 2.3625 3.9404 3.6496-.0226 1.9703-2.3597 2.8396-4.5473 2.8735-3.8162.0593-6.0348-1.0303-7.799-1.8545l-1.3746 6.4329c1.7698.8157 5.0469 1.527 8.4454 1.5581 7.9768 0 13.1959-3.9376 13.2241-10.043.0311-7.7482-10.7176-8.1773-10.6442-11.6407.0254-1.05 1.0274-2.1706 3.2235-2.4557 1.0867-.1439 4.0872-.254 7.4885 1.3126l1.3351-6.224c-1.8291-.6661-4.1804-1.3041-7.1075-1.3041-7.5082 0-12.7894 3.9913-12.8317 9.7043Zm32.7681-9.168c-1.4564 0-2.6843.8497-3.2319 2.1537L67.7557 62.7195h7.9712l1.5864-4.3836h9.7409l.9202 4.3836H95l-6.1308-29.3613h-6.4865Zm1.115 7.9317 2.3004 11.0253H79.498l3.9997-11.0253Zm-43.5479-7.9317-6.2832 29.3613h7.5957l6.2804-29.3613h-7.5929Zm-11.237 0-7.9062 19.9844-3.1981-16.9923c-.3754-1.8969-1.8573-2.9921-3.5029-2.9921H1.18065L1 34.2107c2.65329.5758 5.66789 1.5045 7.49414 2.498 1.11778.6069 1.43673 1.1376 1.80366 2.5799l6.0574 23.4309h8.0277l12.3067-29.3613h-7.9768Z"></path>
  <defs>
    <linearGradient id="a" x1="4322.57" x2="4410.44" y1="124.074" y2="-2993.41" gradientUnits="userSpaceOnUse">
      <stop stop-color="#222357"></stop>
      <stop offset="1" stop-color="#254aa5"></stop>
    </linearGradient>
  </defs>
</svg>
